HIERARCHY
ROOT Hips
{
OFFSET -0.1795 -22.3333 2.8219000000000003
	CHANNELS 6 Xposition Yposition Zposition Zrotation Yrotation Xrotation 
	JOINT LeftUpLeg
	{
OFFSET 6.952 -9.140600000000001 -0.6815
		CHANNELS 3 Zrotation Yrotation Xrotation
		JOINT LeftLeg
		{
OFFSET 3.4277 -37.5199 -0.4496
			CHANNELS 3 Zrotation Yrotation Xrotation
			JOINT LeftFoot
			{
OFFSET -1.3596000000000001 -39.7961 -4.3693
				CHANNELS 3 Zrotation Yrotation Xrotation
				JOINT LeftToe
				{
OFFSET 2.6358 -5.5791 11.9288
					CHANNELS 3 Zrotation Yrotation Xrotation
					End Site
					{
OFFSET 0.0 0.0 0.0
					}
				}
			}
		}
	}
	JOINT RightUpLeg
	{
OFFSET -6.7669999999999995 -9.052200000000001 -0.432
		CHANNELS 3 Zrotation Yrotation Xrotation
		JOINT RightLeg
		{
OFFSET -3.8289999999999997 -38.2569 -0.885
			CHANNELS 3 Zrotation Yrotation Xrotation
			JOINT RightFoot
			{
OFFSET 1.5774 -39.8415 -4.2312
				CHANNELS 3 Zrotation Yrotation Xrotation
				JOINT RightToe
				{
OFFSET -2.5372 -4.8144 12.3348
					CHANNELS 3 Zrotation Yrotation Xrotation
					End Site
					{
OFFSET 0.0 0.0 0.0
					}
				}
			}
		}
	}
	JOINT Spine
	{
OFFSET -0.2533 10.8963 -2.6696
		CHANNELS 3 Zrotation Yrotation Xrotation
		JOINT Spine1
		{
OFFSET 0.5487 13.517999999999999 0.1092
			CHANNELS 3 Zrotation Yrotation Xrotation
			JOINT Spine2
			{
OFFSET 0.1457 5.292199999999999 2.5425
				CHANNELS 3 Zrotation Yrotation Xrotation
				JOINT Neck
				{
OFFSET -0.2778 21.387 -4.2857
					CHANNELS 3 Zrotation Yrotation Xrotation
					JOINT Head
					{
OFFSET 0.5152 6.497 5.1349
						CHANNELS 3 Zrotation Yrotation Xrotation
						End Site
						{
OFFSET 0.0 0.0 0.0
						}
					}
				}
				JOINT LeftShoulder
				{
OFFSET 7.8845 12.1749 -3.4090000000000003
					CHANNELS 3 Zrotation Yrotation Xrotation
					JOINT LeftArm
					{
OFFSET 9.0977 3.0469 -0.8867999999999999
						CHANNELS 3 Zrotation Yrotation Xrotation
						JOINT LeftForeArm
						{
OFFSET 25.9612 -1.2772000000000001 -2.7456
							CHANNELS 3 Zrotation Yrotation Xrotation
							JOINT LeftHand
							{
OFFSET 24.9234 0.8986 -0.1171
								CHANNELS 3 Zrotation Yrotation Xrotation
								End Site
								{
OFFSET 0.0 0.0 0.0
								}
							}
						}
					}
				}
				JOINT RightShoulder
				{
OFFSET -8.1759 11.8833 -3.8614999999999995
					CHANNELS 3 Zrotation Yrotation Xrotation
					JOINT RightArm
					{
OFFSET -9.6012 3.2550999999999997 -0.9143
						CHANNELS 3 Zrotation Yrotation Xrotation
						JOINT RightForeArm
						{
OFFSET -25.374200000000002 -1.3329 -2.1401
							CHANNELS 3 Zrotation Yrotation Xrotation
							JOINT RightHand
							{
OFFSET -25.5298 0.7772 -0.5559
								CHANNELS 3 Zrotation Yrotation Xrotation
								End Site
								{
OFFSET 0.0 0.0 0.0
								}
							}
						}
					}
				}
			}
		}
	}
}
MOTION
Frames: 6
Frame Time: 0.050000
0.0 97.163 0.0 1.604114 0.975560 2.330818 -0.244253 -0.353382 -3.823275 -1.869442 0.030188 8.919634 4.251604 10.888146 8.376163 0.000000 0.000000 0.000000 -3.849491 1.459378 -21.024722 8.384313 -3.300288 53.373319 -4.709907 -13.118597 7.416511 0.000000 0.000000 0.000000 3.560775 -0.803534 10.362244 -5.653355 1.963087 -24.533142 -2.524139 4.274112 29.138087 12.765261 -4.089891 -31.543951 0.000000 0.000000 0.000000 -10.364860 -9.622183 3.182765 -53.457436 -5.204838 -6.639845 -12.116987 -28.661717 4.279816 0.000000 0.000000 0.000000 21.297376 -3.513158 -1.796578 61.072778 11.507510 -2.886602 12.422450 36.858009 6.793705 0.000000 0.000000 0.000000
-0.000232 0.973665 0.050604 0.263138 0.560200 2.699152 1.297949 0.115590 1.764501 -1.527650 0.076372 4.171281 4.058865 10.726249 9.375687 0.000000 0.000000 0.000000 -4.405522 1.736903 -26.638258 10.771888 -4.142207 46.194319 -6.617802 -16.877391 5.803357 0.000000 0.000000 0.000000 5.207061 -0.905435 9.402800 -4.724011 1.757933 -23.399804 -3.853341 1.611049 28.084422 11.243578 -3.807090 -30.712196 0.000000 0.000000 0.000000 -9.258282 -9.798990 3.664731 -54.517768 -7.020299 -5.789537 -9.759449 -30.406925 4.123128 0.000000 0.000000 0.000000 20.522981 -2.486561 -2.024756 63.315932 7.628291 -4.717545 11.029135 36.848627 5.953211 0.000000 0.000000 0.000000 
-0.001830 0.968499 0.102918 -0.517131 -0.554894 1.750136 1.851404 0.533948 7.395172 -1.620251 0.135207 2.227582 4.284800 10.903806 8.698836 0.000000 0.000000 0.000000 -4.016571 1.977066 -27.859865 9.696406 -2.548866 32.639572 -5.951550 -15.642970 6.651721 0.000000 0.000000 0.000000 5.734339 -1.057982 10.761524 -3.087176 1.338440 -24.135829 -3.124426 1.668260 29.302137 9.087621 -2.576947 -32.334468 0.000000 0.000000 0.000000 -10.024516 -10.860831 4.271688 -53.168456 -10.550931 -4.231241 -9.818363 -29.918361 4.096791 0.000000 0.000000 0.000000 19.707914 -4.396704 -3.201746 61.414350 4.710881 -6.288548 14.130600 36.293508 6.766212 0.000000 0.000000 0.000000 
-0.004666 0.955845 0.156437 -0.915302 -1.316570 2.233978 1.675143 0.975235 12.557660 -0.107974 0.021404 -0.285994 5.400563 12.561624 7.348301 0.000000 0.000000 0.000000 -3.839976 2.130635 -28.568742 7.472202 -1.159590 16.229219 -7.234063 -18.269641 5.701868 0.000000 0.000000 0.000000 7.263776 -1.287143 11.351529 -2.751137 1.245739 -25.262384 -4.120663 0.272919 30.356835 9.366446 -2.896259 -33.443454 0.000000 0.000000 0.000000 -7.988520 -10.344831 4.209997 -54.729626 -11.791501 -3.737761 -8.804946 -33.095372 4.483428 0.000000 0.000000 0.000000 19.344937 -4.881152 -3.927828 60.933911 2.812735 -7.312323 13.642436 33.823881 5.857273 0.000000 0.000000 0.000000 
-0.008954 0.936701 0.212148 -0.506006 -2.531146 3.232318 1.079788 1.389684 15.817683 0.689786 -0.042070 -0.906432 6.089940 13.644865 6.476813 0.000000 0.000000 0.000000 -4.267826 2.232031 -29.796787 6.220046 -0.666710 3.926478 -6.205799 -15.990591 3.442916 0.000000 0.000000 0.000000 6.947276 -1.151587 10.300779 -2.416639 1.137168 -23.527330 -4.136055 -1.124852 29.065184 10.222288 -3.536006 -33.841494 0.000000 0.000000 0.000000 -6.913861 -9.570645 4.024625 -55.238929 -14.620800 -2.124315 -8.126921 -34.092081 4.587639 0.000000 0.000000 0.000000 20.065617 -3.785735 -4.058918 59.023535 0.946453 -7.817145 10.461264 32.427031 4.362351 0.000000 0.000000 0.000000 
-0.016520 0.918040 0.272095 -0.462139 -5.409238 4.482486 0.371310 1.791356 17.390360 0.611211 -0.148942 2.146565 7.248516 15.636827 4.232052 0.000000 0.000000 0.000000 -3.938538 2.979303 -34.036992 7.236597 -0.787554 6.590923 -6.345762 -16.771405 4.918338 0.000000 0.000000 0.000000 8.150534 -1.217434 9.765024 -1.067373 0.726693 -22.465270 -5.209637 -0.081993 27.658961 10.281870 -3.345470 -35.068389 0.000000 0.000000 0.000000 -6.902523 -8.832524 3.774498 -55.442783 -14.761185 -1.795248 -8.065193 -36.007166 4.906563 0.000000 0.000000 0.000000 21.639819 -3.708411 -4.578979 57.332633 -0.963985 -8.243640 8.423557 30.074685 3.338717 0.000000 0.000000 0.000000 
